<?xml version="1.0" encoding="iso-8859-1"?>
<!-- Uploaded to: SVG Repo, www.svgrepo.com, Generator: SVG Repo Mixer Tools -->
<svg fill="#000000" height="800px" width="800px" version="1.1" id="Layer_1" xmlns="http://www.w3.org/2000/svg" xmlns:xlink="http://www.w3.org/1999/xlink" 
	 viewBox="0 0 510.738 510.738" xml:space="preserve">
<g>
	<g>
		<g>
			<path d="M423.285,259.422c-0.272-0.895-0.666-1.684-1.139-2.383c5.29-16.467,8.157-34.019,8.157-52.243
				c0-94.253-76.414-170.667-170.667-170.667S88.969,110.543,88.969,204.796c0,18.427,2.932,36.167,8.336,52.793
				c-0.322,0.563-0.61,1.161-0.814,1.834l-57.566,189.73c-5.705,18.781,16.041,33.642,32.065,22.475l55.072-38.356
				c8.995-6.265,21.719-2.663,25.718,7.122l23.057,56.439c7.947,19.453,36.547,18.202,42.647-1.911l36.284-119.571
				c1.949,0.066,3.904,0.111,5.869,0.111c2.132,0,4.252-0.053,6.365-0.13l36.282,119.59c6.114,20.111,34.687,21.361,42.645,1.915
				l23.067-56.443c3.999-9.788,16.717-13.388,25.72-7.122l55.072,38.356c16.023,11.165,37.769-3.695,32.063-22.479L423.285,259.422z
				 M201.152,489.967c-1.427,4.705-8.633,5.02-10.516,0.411l-23.057-56.44c-8.17-19.994-33.383-27.131-51.271-14.672l-55.074,38.357
				c-3.005,2.094-6.878-0.552-5.979-3.514l51.365-169.291c6.617,11.266,14.599,21.795,23.758,31.419
				c26.517,30.728,63.807,51.89,106.001,57.64L201.152,489.967z M249.705,358.068c-0.48-0.122-0.973-0.217-1.488-0.255
				c-39.731-2.932-76.149-21.062-102.513-50.268c-0.838-0.84-1.662-1.688-2.477-2.542c-23.176-26.899-37.191-61.915-37.191-100.207
				c0-84.827,68.773-153.6,153.6-153.6s153.6,68.773,153.6,153.6c0,40.982-16.052,78.213-42.208,105.755
				c-0.363,0.342-0.719,0.691-1.085,1.031c-26.212,26.898-60.84,43.327-98.417,46.207c-0.496,0.038-0.97,0.13-1.434,0.246
				c-3.456,0.232-6.941,0.362-10.456,0.362C256.299,358.396,252.99,358.277,249.705,358.068z M458.543,457.625l-55.076-38.359
				c-17.896-12.457-43.101-5.322-51.27,14.672l-23.065,56.439c-1.887,4.612-9.086,4.297-10.518-0.414l-35.239-116.152
				c39.132-5.446,74.02-24.15,99.967-51.443c11.63-11.017,21.716-23.669,29.821-37.523l51.356,169.263
				C465.419,457.071,461.546,459.718,458.543,457.625z"/>
			<path d="M46.302,76.8c0,11.378,17.067,11.378,17.067,0c0-14.154,11.446-25.6,25.6-25.6c11.378,0,11.378-17.067,0-17.067
				c-14.154,0-25.6-11.446-25.6-25.6c0-11.378-17.067-11.378-17.067,0c0,14.154-11.446,25.6-25.6,25.6
				c-11.378,0-11.378,17.067,0,17.067C34.857,51.2,46.302,62.646,46.302,76.8z M54.836,34.151c2.423,3.224,5.292,6.093,8.516,8.516
				c-3.224,2.423-6.093,5.292-8.516,8.516c-2.423-3.224-5.292-6.093-8.516-8.516C49.544,40.244,52.413,37.375,54.836,34.151z"/>
			<path d="M490.036,136.533h-8.533V128c0-4.713-3.82-8.533-8.533-8.533s-8.533,3.82-8.533,8.533v8.533h-8.533
				c-4.713,0-8.533,3.82-8.533,8.533s3.82,8.533,8.533,8.533h8.533v8.533c0,4.713,3.821,8.533,8.533,8.533s8.533-3.82,8.533-8.533
				V153.6h8.533c4.713,0,8.533-3.821,8.533-8.533S494.749,136.533,490.036,136.533z"/>
			<path d="M29.236,213.333c-4.719,0-8.533,3.823-8.533,8.533c0,4.71,3.814,8.533,8.533,8.533s8.533-3.823,8.533-8.533
				C37.769,217.156,33.955,213.333,29.236,213.333z"/>
			<path d="M387.636,204.796c0-70.684-57.316-128-128-128s-128,57.316-128,128c0,70.69,57.313,128,128,128
				S387.636,275.485,387.636,204.796z M148.702,204.796c0-61.258,49.675-110.933,110.933-110.933s110.933,49.675,110.933,110.933
				c0,61.264-49.672,110.933-110.933,110.933S148.702,266.06,148.702,204.796z"/>
			<path d="M268.169,281.648l0.05-8.826c9.456-1.877,17.99-6.894,24.249-14.288c11.054-13.072,8.549-32.914-5.029-43.473
				l-19.107-14.866l-0.105-46.506c10.042,3.459,17.259,12.983,17.259,24.203c0,4.713,3.82,8.533,8.533,8.533s8.533-3.82,8.533-8.533
				c0-20.727-14.775-37.99-34.365-41.853l-0.018-8.067c-0.011-4.713-3.84-8.525-8.553-8.514c-4.713,0.011-8.525,3.84-8.514,8.553
				l0.018,8.13c-9.288,1.94-17.655,6.918-23.825,14.205c-11.05,13.07-8.545,32.913,5.04,43.468l18.949,14.742l0.066,29.092
				l-0.098,17.443c-9.889-3.543-16.966-12.996-16.966-24.103c0-4.713-3.82-8.533-8.533-8.533s-8.533,3.82-8.533,8.533
				c0,20.569,14.559,37.738,33.933,41.769l-0.05,8.796c-0.026,4.713,3.772,8.555,8.485,8.581
				C264.3,290.16,268.142,286.361,268.169,281.648z M242.811,180.34c-6.055-4.705-7.159-13.444-2.487-18.971
				c2.925-3.454,6.658-6.035,10.836-7.546l0.075,33.071L242.811,180.34z M276.96,228.532c6.052,4.706,7.155,13.448,2.479,18.979
				c-2.988,3.53-6.827,6.155-11.121,7.652l0.098-17.486l-0.036-15.819L276.96,228.532z"/>
		</g>
	</g>
</g>
</svg>